<svg width="101" height="17" viewBox="0 0 101 17" fill="none" xmlns="http://www.w3.org/2000/svg">
<path d="M0 14.98H14V0.98H0V14.98ZM18.0295 5.36435H21.1765V14H23.006V5.36435H26.1531V3.81818H18.0295V5.36435ZM29.8631 14.1491C32.1003 14.1491 33.5222 12.5732 33.5222 10.2116C33.5222 7.84517 32.1003 6.2642 29.8631 6.2642C27.6259 6.2642 26.204 7.84517 26.204 10.2116C26.204 12.5732 27.6259 14.1491 29.8631 14.1491ZM29.873 12.7074C28.6351 12.7074 28.0286 11.6037 28.0286 10.2067C28.0286 8.80966 28.6351 7.69105 29.873 7.69105C31.0911 7.69105 31.6976 8.80966 31.6976 10.2067C31.6976 11.6037 31.0911 12.7074 29.873 12.7074ZM37.8835 14.1342C39.196 14.1342 39.7876 13.3537 40.071 12.7969H40.1804V14H41.9503V3.81818H40.1456V7.62642H40.071C39.7976 7.07457 39.2358 6.2642 37.8885 6.2642C36.1236 6.2642 34.7365 7.64631 34.7365 10.1918C34.7365 12.7074 36.0838 14.1342 37.8835 14.1342ZM38.3857 12.6577C37.1974 12.6577 36.571 11.6136 36.571 10.1818C36.571 8.75994 37.1875 7.74077 38.3857 7.74077C39.544 7.74077 40.1804 8.70028 40.1804 10.1818C40.1804 11.6634 39.5341 12.6577 38.3857 12.6577ZM46.0655 14.1541C47.2637 14.1541 47.9796 13.5923 48.3077 12.951H48.3674V14H50.0975V8.8892C50.0975 6.87074 48.4519 6.2642 46.9952 6.2642C45.3894 6.2642 44.1564 6.98011 43.7587 8.37216L45.4391 8.6108C45.6181 8.08878 46.1252 7.64134 47.0051 7.64134C47.8404 7.64134 48.2978 8.06889 48.2978 8.8196V8.84943C48.2978 9.36648 47.7559 9.39134 46.4086 9.53551C44.927 9.6946 43.5101 10.1371 43.5101 11.8572C43.5101 13.3587 44.6088 14.1541 46.0655 14.1541ZM46.5328 12.8317C45.7821 12.8317 45.2452 12.4886 45.2452 11.8274C45.2452 11.1364 45.8468 10.848 46.6522 10.7337C47.1245 10.669 48.0691 10.5497 48.3027 10.3608V11.2607C48.3027 12.1108 47.6167 12.8317 46.5328 12.8317ZM52.7523 16.8636C54.1543 16.8636 54.9647 16.1428 55.3972 14.9247L58.4647 6.37358L56.5407 6.36364L54.7757 12.1307H54.6962L52.9363 6.36364H51.0272L53.7963 14.1591L53.6422 14.5717C53.3091 15.4418 52.7821 15.5014 51.9966 15.2727L51.579 16.6747C51.8226 16.7741 52.2601 16.8636 52.7523 16.8636ZM61.3482 12.608H59.7573L59.7225 13.1648C59.638 14.5121 59.285 15.8842 59.1408 16.4858H60.3539C60.5925 15.8594 61.1444 14.4077 61.2836 13.1548L61.3482 12.608ZM70.6438 3.81818H68.8888L66.3583 5.44389V7.13423L68.7397 5.61293H68.7994V14H70.6438V3.81818ZM73.6019 14H75.516L79.8413 5.39418V3.81818H72.9059V5.35938H77.9322V5.42898L73.6019 14ZM80.8244 14.1094C81.411 14.1094 81.9132 13.6222 81.9181 13.0156C81.9132 12.419 81.411 11.9318 80.8244 11.9318C80.2179 11.9318 79.7257 12.419 79.7306 13.0156C79.7257 13.6222 80.2179 14.1094 80.8244 14.1094ZM87.1234 14.1939C89.5794 14.1989 91.046 12.2599 91.046 8.91903C91.046 5.59801 89.5694 3.67898 87.1234 3.67898C84.6774 3.67898 83.2058 5.59304 83.2008 8.91903C83.2008 12.255 84.6674 14.1939 87.1234 14.1939ZM87.1234 12.6378C85.8556 12.6378 85.0602 11.3651 85.0652 8.91903C85.0701 6.4929 85.8606 5.2152 87.1234 5.2152C88.3912 5.2152 89.1816 6.4929 89.1866 8.91903C89.1866 11.3651 88.3961 12.6378 87.1234 12.6378ZM96.4613 14.1939C98.9173 14.1989 100.384 12.2599 100.384 8.91903C100.384 5.59801 98.9073 3.67898 96.4613 3.67898C94.0153 3.67898 92.5437 5.59304 92.5387 8.91903C92.5387 12.255 94.0053 14.1939 96.4613 14.1939ZM96.4613 12.6378C95.1935 12.6378 94.3981 11.3651 94.4031 8.91903C94.408 6.4929 95.1985 5.2152 96.4613 5.2152C97.729 5.2152 98.5195 6.4929 98.5245 8.91903C98.5245 11.3651 97.734 12.6378 96.4613 12.6378Z" fill="#B9B9BE"/>
</svg>
